<svg width="39" height="38" viewBox="0 0 39 38" fill="none" xmlns="http://www.w3.org/2000/svg">
<g filter="url(#filter0_d_5102_333)">
<path d="M12.741 18.8828C12.6021 18.6129 12.5506 18.3065 12.5936 18.0061C12.6366 17.7056 12.772 17.426 12.981 17.2059C13.197 16.9833 13.4742 16.8305 13.7786 16.7681L15.7794 16.4142C16.2814 16.3218 16.7551 16.114 17.163 15.8071C17.5708 15.5002 17.9018 15.1027 18.1296 14.646L19.0291 12.7961C19.1731 12.5241 19.3989 12.3042 19.6745 12.1673C19.9502 12.0304 20.2618 11.9835 20.5656 12.0331C20.8694 12.0827 21.1499 12.2263 21.3677 12.4438C21.5855 12.6612 21.7296 12.9415 21.7796 13.2451L22.1347 15.2487C22.2269 15.7508 22.4347 16.2247 22.7416 16.6328C23.0485 17.0409 23.4462 17.372 23.9031 17.6L25.7488 18.5016C26.0195 18.643 26.2394 18.8653 26.3778 19.1375C26.5163 19.4098 26.5665 19.7184 26.5214 20.0204C26.4762 20.3224 26.3381 20.6029 26.1262 20.8228C25.9142 21.0427 25.639 21.191 25.3387 21.2472L23.2983 21.6098C22.8092 21.704 22.3479 21.908 21.9491 22.2063C21.5502 22.5047 21.2243 22.8896 20.9958 23.3321L20.1007 25.1813C19.959 25.4518 19.7366 25.6715 19.4644 25.8098C19.1922 25.9482 18.8836 25.9984 18.5815 25.9535C18.2794 25.9085 17.9989 25.7706 17.7787 25.559C17.5586 25.3473 17.4098 25.0724 17.353 24.7724L17.002 22.7708C16.9097 22.2662 16.7003 21.7902 16.3905 21.3812C16.0807 20.9722 15.6793 20.6416 15.2184 20.416L13.3686 19.5138C13.0984 19.3735 12.8794 19.1523 12.741 18.8828Z" fill="#358BB9"/>
</g>
<defs>
<filter id="filter0_d_5102_333" x="0.578857" y="0.013916" width="37.9586" height="37.9556" filterUnits="userSpaceOnUse" color-interpolation-filters="sRGB">
<feFlood flood-opacity="0" result="BackgroundImageFix"/>
<feColorMatrix in="SourceAlpha" type="matrix" values="0 0 0 0 0 0 0 0 0 0 0 0 0 0 0 0 0 0 127 0" result="hardAlpha"/>
<feOffset/>
<feGaussianBlur stdDeviation="6"/>
<feComposite in2="hardAlpha" operator="out"/>
<feColorMatrix type="matrix" values="0 0 0 0 0.532812 0 0 0 0 0.184062 0 0 0 0 0.590937 0 0 0 0.35 0"/>
<feBlend mode="normal" in2="BackgroundImageFix" result="effect1_dropShadow_5102_333"/>
<feBlend mode="normal" in="SourceGraphic" in2="effect1_dropShadow_5102_333" result="shape"/>
</filter>
</defs>
</svg>
